<?xml version="1.0" encoding="UTF-8"?><svg id="Layer_1" xmlns="http://www.w3.org/2000/svg" xmlns:xlink="http://www.w3.org/1999/xlink" viewBox="0 0 410.82 96.33"><defs><style>.cls-1{fill:none;}.cls-2{clip-path:url(#clippath);}.cls-3,.cls-4{fill:#078fcd;}.cls-5{clip-path:url(#clippath-1);}.cls-6{clip-path:url(#clippath-3);}.cls-7{clip-path:url(#clippath-2);}.cls-4,.cls-8,.cls-9{fill-rule:evenodd;}.cls-8{fill:#9bd511;}</style><clipPath id="clippath"><rect class="cls-1" width="52.78" height="79.97"/></clipPath><clipPath id="clippath-1"><rect class="cls-1" x="20.39" y="30.82" width="58.08" height="65.51"/></clipPath><clipPath id="clippath-2"><rect class="cls-1" x="78.47" y="10.72" width="8.65" height="7.82"/></clipPath><clipPath id="clippath-3"><rect class="cls-1" x="78.47" y="10.72" width="8.18" height="7.82"/></clipPath></defs><path d="M111.3,52.11h-9.94v-3.79c0-.4-.14-.75-.42-1.04-.27-.3-.6-.46-1-.46h-4.1c-.41,0-.74,.16-1.02,.46-.27,.29-.4,.64-.4,1.04v8.58c0,.39,.13,.74,.4,1.04,.28,.29,.61,.44,1.02,.44h6.73c6.17,.11,9.25,3.41,9.25,9.88v10.38c0,6.57-3.08,9.85-9.25,9.85h-8.81c-6.18,0-9.27-3.28-9.27-9.85v-5h9.94v5.38c0,.39,.13,.74,.4,1.04,.28,.29,.61,.44,1.02,.44h4.63c.4,0,.73-.15,1-.44,.28-.3,.42-.65,.42-1.04v-9.48c0-.4-.14-.75-.42-1.04-.27-.3-.6-.46-1-.46h-6.71c-6.18,0-9.27-3.28-9.27-9.85v-9.65c0-6.57,3.09-9.85,9.27-9.85h8.27c6.18,0,9.27,3.29,9.27,9.85v3.58Z"/><path d="M131.6,81.99h3v6.5h-7.02c-6.18,0-9.27-3.28-9.27-9.85V43.38h10.02v7.92h6.27v7.25h-6.27v19.85c0,1.39,.27,2.33,.81,2.83s1.36,.75,2.46,.75Z"/><path d="M166.76,60.4v18.23c0,6.57-3.08,9.85-9.25,9.85h-8.44c-6.18,0-9.27-3.28-9.27-9.85v-18.23c0-6.57,3.09-9.85,9.27-9.85h8.44c6.17,0,9.25,3.29,9.25,9.85Zm-10,20.31v-22.48c0-.39-.14-.73-.42-1.02-.28-.3-.61-.46-1-.46h-4.1c-.41,0-.74,.16-1.02,.46-.27,.29-.4,.64-.4,1.02v22.48c0,.41,.13,.76,.4,1.06,.28,.29,.61,.44,1.02,.44h4.1c.39,0,.72-.15,1-.44,.28-.3,.42-.66,.42-1.06Z"/><path d="M189.09,50.55h1.94v9.71h-4.94c-1.68,0-2.52,.88-2.52,2.63v24.85h-10.02V51.3h9.13v3.5c1.43-2.83,3.57-4.25,6.42-4.25Z"/><path d="M213.21,50.55c6.17,0,9.25,3.29,9.25,9.85v11.81h-16.94v7.6c0,.41,.13,.76,.4,1.06,.28,.29,.61,.44,1.02,.44h4.1c.39,0,.72-.15,1-.44,.28-.3,.42-.66,.42-1.06v-4.02h10v2.83c0,6.57-3.08,9.85-9.25,9.85h-8.44c-6.18,0-9.27-3.28-9.27-9.85v-18.23c0-6.57,3.09-9.85,9.27-9.85h8.44Zm-7.69,15.08h6.94v-6.71c0-.4-.14-.75-.42-1.04-.28-.3-.61-.46-1-.46h-4.1c-.41,0-.74,.16-1.02,.46-.27,.29-.4,.64-.4,1.04v6.71Z"/><path class="cls-3" d="M255.16,52.11h-9.94v-3.79c0-.4-.14-.75-.42-1.04-.27-.3-.6-.46-1-.46h-4.1c-.41,0-.74,.16-1.02,.46-.27,.29-.4,.64-.4,1.04v8.58c0,.39,.13,.74,.4,1.04,.28,.29,.61,.44,1.02,.44h6.73c6.17,.11,9.25,3.41,9.25,9.88v10.38c0,6.57-3.08,9.85-9.25,9.85h-8.81c-6.18,0-9.27-3.28-9.27-9.85v-5h9.94v5.38c0,.39,.13,.74,.4,1.04,.28,.29,.61,.44,1.02,.44h4.63c.4,0,.73-.15,1-.44,.28-.3,.42-.65,.42-1.04v-9.48c0-.4-.14-.75-.42-1.04-.27-.3-.6-.46-1-.46h-6.71c-6.18,0-9.27-3.28-9.27-9.85v-9.65c0-6.57,3.09-9.85,9.27-9.85h8.27c6.18,0,9.27,3.29,9.27,9.85v3.58Z"/><path class="cls-3" d="M275.46,81.99h3v6.5h-7.02c-6.18,0-9.27-3.28-9.27-9.85V43.38h10.02v7.92h6.27v7.25h-6.27v19.85c0,1.39,.27,2.33,.81,2.83s1.36,.75,2.46,.75Z"/><path class="cls-3" d="M302.19,51.3h8.44v36.44h-8.44v-2.69c-1.54,2.29-4.1,3.44-7.69,3.44h-1.56c-6.18,0-9.27-3.28-9.27-9.85v-18.23c0-6.57,3.09-9.85,9.27-9.85h1.56c3.58,0,6.15,1.15,7.69,3.44v-2.69Zm-1.56,28.52v-20.6c0-.4-.14-.75-.42-1.04-.28-.3-.61-.46-1-.46h-4.1c-.41,0-.74,.16-1.02,.46-.27,.29-.4,.64-.4,1.04v20.6c0,.41,.13,.76,.4,1.06,.28,.29,.61,.44,1.02,.44h4.1c.39,0,.72-.15,1-.44,.28-.3,.42-.66,.42-1.06Z"/><path class="cls-3" d="M332.95,50.55h1.94v9.71h-4.94c-1.68,0-2.52,.88-2.52,2.63v24.85h-10.02V51.3h9.13v3.5c1.43-2.83,3.57-4.25,6.42-4.25Z"/><path class="cls-3" d="M352.65,81.99h3v6.5h-7.02c-6.18,0-9.27-3.28-9.27-9.85V43.38h10.02v7.92h6.27v7.25h-6.27v19.85c0,1.39,.27,2.33,.81,2.83s1.36,.75,2.46,.75Z"/><path class="cls-3" d="M378.57,50.55c6.17,0,9.25,3.29,9.25,9.85v11.81h-16.94v7.6c0,.41,.13,.76,.4,1.06,.28,.29,.61,.44,1.02,.44h4.1c.39,0,.72-.15,1-.44,.28-.3,.42-.66,.42-1.06v-4.02h10v2.83c0,6.57-3.08,9.85-9.25,9.85h-8.44c-6.18,0-9.27-3.28-9.27-9.85v-18.23c0-6.57,3.09-9.85,9.27-9.85h8.44Zm-7.69,15.08h6.94v-6.71c0-.4-.14-.75-.42-1.04-.28-.3-.61-.46-1-.46h-4.1c-.41,0-.74,.16-1.02,.46-.27,.29-.4,.64-.4,1.04v6.71Z"/><path class="cls-3" d="M408.88,50.55h1.94v9.71h-4.94c-1.68,0-2.52,.88-2.52,2.63v24.85h-10.02V51.3h9.13v3.5c1.43-2.83,3.57-4.25,6.42-4.25Z"/><g><g class="cls-2"><path class="cls-8" d="M40.8,14.76H21.21c-.09-.52-.13-1.06-.13-1.61,0-5.47,4.44-9.9,9.93-9.9s9.93,4.43,9.93,9.9c0,.55-.04,1.09-.13,1.61ZM9.95,79.57h8.42v-12.74c3.35,2.49,6.77,4.37,10.24,5.66,3.47,1.28,6.81,1.93,10,1.93s5.4-.61,7.08-1.81c1.68-1.2,2.52-2.82,2.52-4.84v-.24c0-1.16-.38-2.18-1.11-3.03-.74-.86-1.75-1.62-3.05-2.28-1.29-.66-2.77-1.24-4.45-1.75l-5.21-1.58c-2.26-.7-4.55-1.48-6.85-2.33s-4.37-1.96-6.2-3.32c-1.83-1.36-3.34-3.03-4.51-5.02-1.17-1.98-1.75-4.45-1.75-7.41v-.23c0-2.88,.57-5.48,1.7-7.82,1.13-2.33,2.69-4.31,4.68-5.95,1.99-1.64,4.33-2.88,7.02-3.74s5.56-1.28,8.6-1.28c3.9,0,7.84,.62,11.82,1.87,1.15,.36,2.27,.76,3.37,1.2V14.76h-8.22c.07-.52,.1-1.06,.1-1.61C44.16,5.91,38.28,.04,31.01,.04s-13.15,5.87-13.15,13.11c0,.55,.03,1.09,.1,1.61H6.86L0,79.57H9.95Z"/></g><g class="cls-5"><path class="cls-4" d="M54.17,38.82c-2.97-1.79-5.96-3.21-9.01-4.26-3.05-1.05-5.85-1.58-8.42-1.58-2.73,0-4.86,.58-6.38,1.75-1.52,1.16-2.28,2.64-2.28,4.43v.23c0,1.09,.39,2.05,1.17,2.86,.78,.82,1.81,1.56,3.1,2.22,1.29,.66,2.77,1.28,4.45,1.87,1.68,.58,3.41,1.15,5.21,1.69,2.26,.7,4.52,1.52,6.78,2.45,2.26,.93,4.31,2.08,6.14,3.44,1.83,1.36,3.33,3.01,4.5,4.96,1.17,1.94,1.75,4.32,1.75,7.12v.23c0,3.27-.58,6.11-1.75,8.52-1.17,2.41-2.79,4.41-4.86,6.01-2.07,1.6-4.51,2.8-7.32,3.62s-5.81,1.23-9.01,1.23c-4.45,0-8.95-.78-13.51-2.33-1.3-.45-2.57-.95-3.81-1.51v14.52h57.39l-6.99-65.44h-17.16v7.97h0Z"/></g><path class="cls-8" d="M63.56,18.06l6.88,.12-.9-6.85-7.08-.1,1.11,6.83Z"/><path class="cls-4" d="M70.9,18.58l1.21,10.64,11-.21-1.58-10.73-10.64,.3Z"/><g class="cls-7"><path class="cls-4" d="M79.55,11.74l.75,6.59,6.81-.13-.97-6.65-6.59,.18Z"/></g><path class="cls-8" d="M72.23,4.19l.75,6.6,6.81-.13-.98-6.65-6.59,.18Z"/><path class="cls-9" d="M63.56,18.06l6.88,.12-.9-6.85-7.08-.1,1.11,6.83Z"/><path class="cls-9" d="M70.9,18.58l1.21,10.64,11-.21-1.58-10.73-10.64,.3Z"/><g class="cls-6"><path class="cls-9" d="M79.55,11.74l.75,6.59,6.81-.13-.97-6.65-6.59,.18Z"/></g><path class="cls-9" d="M72.23,4.19l.75,6.6,6.81-.13-.98-6.65-6.59,.18Z"/></g></svg>