<?xml version="1.0" encoding="UTF-8"?><svg id="Layer_1" xmlns="http://www.w3.org/2000/svg" viewBox="0 0 500 500"><defs><style>.cls-1{fill:none;}</style></defs><path class="cls-1" d="M331.45,320.71c1.71-1.87,3.36-3.79,4.97-5.75,1.61-1.96,3.17-3.96,4.67-5.99,1.51-2.04,2.97-4.11,4.38-6.21,1.4-2.11,2.76-4.25,4.06-6.42,1.3-2.17,2.55-4.38,3.74-6.61,1.2-2.23,2.33-4.49,3.42-6.78,1.08-2.29,2.11-4.61,3.08-6.95,.97-2.34,1.88-4.7,2.73-7.09,.85-2.38,1.65-4.79,2.38-7.21,.74-2.43,1.41-4.86,2.03-7.32,.62-2.46,1.17-4.93,1.67-7.41,.5-2.49,.93-4.98,1.3-7.49,.37-2.51,.68-5.02,.93-7.54,.25-2.52,.44-5.05,.56-7.58,.12-2.53,.18-5.06,.18-7.6s-.06-5.06-.18-7.6c-.13-2.53-.31-5.06-.56-7.58-.24-2.52-.56-5.03-.93-7.54-.37-2.51-.8-5-1.3-7.49-.5-2.48-1.05-4.95-1.67-7.41-.61-2.46-1.29-4.9-2.03-7.32-.73-2.43-1.53-4.83-2.38-7.21-.85-2.39-1.76-4.75-2.73-7.09-.97-2.34-1.99-4.66-3.08-6.94-1.08-2.29-2.22-4.56-3.42-6.79-1.19-2.24-2.44-4.44-3.74-6.61-1.3-2.17-2.66-4.31-4.06-6.42-1.41-2.11-2.87-4.18-4.38-6.22-1.51-2.03-3.07-4.03-4.67-5.99-1.61-1.96-3.26-3.88-4.97-5.75-1.7-1.88-3.44-3.72-5.24-5.5-1.79-1.79-3.62-3.54-5.51-5.24-1.88-1.7-3.79-3.36-5.75-4.96-1.96-1.61-3.96-3.17-5.99-4.68-2.04-1.51-4.11-2.97-6.22-4.37-2.11-1.41-4.25-2.76-6.42-4.07-2.17-1.3-4.37-2.55-6.61-3.74-2.23-1.2-4.5-2.33-6.79-3.42-2.29-1.08-4.6-2.11-6.95-3.08-2.34-.97-4.7-1.88-7.09-2.73-2.39-.85-4.79-1.65-7.22-2.38-2.42-.74-4.87-1.41-7.32-2.03-2.46-.61-4.93-1.17-7.42-1.66-2.48-.5-4.98-.93-7.48-1.3-2.51-.38-5.02-.68-7.54-.93-2.52-.24-5.05-.43-7.58-.56-2.53-.13-5.07-.19-7.6-.19s-5.06,.06-7.59,.19c-2.53,.13-5.05,.31-7.58,.56-2.52,.25-5.04,.56-7.54,.93-2.5,.37-5,.8-7.49,1.3-2.48,.5-4.95,1.05-7.41,1.66-2.46,.62-4.9,1.29-7.32,2.03-2.43,.73-4.84,1.53-7.22,2.38-2.38,.85-4.75,1.77-7.09,2.73-2.35,.97-4.66,2-6.95,3.08-2.29,1.08-4.55,2.22-6.79,3.42-2.24,1.19-4.44,2.44-6.62,3.74-2.17,1.3-4.31,2.66-6.42,4.07-2.11,1.4-4.18,2.86-6.21,4.37-2.03,1.51-4.03,3.07-5.99,4.68-1.96,1.6-3.88,3.26-5.76,4.96-1.88,1.7-3.71,3.45-5.5,5.24-1.79,1.79-3.54,3.62-5.24,5.5-1.7,1.87-3.36,3.79-4.96,5.75-1.61,1.96-3.17,3.96-4.67,5.99-1.51,2.04-2.97,4.11-4.38,6.22-1.41,2.11-2.77,4.24-4.06,6.42-1.3,2.17-2.55,4.37-3.75,6.61-1.19,2.23-2.33,4.49-3.41,6.79-1.08,2.29-2.11,4.6-3.08,6.94-.97,2.34-1.88,4.7-2.73,7.09-.85,2.39-1.65,4.79-2.38,7.21-.74,2.43-1.41,4.86-2.03,7.32-.61,2.46-1.17,4.93-1.66,7.41-.5,2.49-.93,4.98-1.3,7.49-.37,2.51-.68,5.02-.93,7.54-.24,2.52-.43,5.05-.56,7.58-.12,2.53-.18,5.06-.18,7.6s.06,5.06,.18,7.6c.13,2.53,.31,5.06,.56,7.58,.25,2.52,.56,5.03,.93,7.54,.37,2.51,.8,5,1.3,7.49,.5,2.48,1.05,4.95,1.66,7.41,.62,2.46,1.29,4.9,2.03,7.32,.73,2.43,1.53,4.83,2.38,7.21,.85,2.39,1.76,4.75,2.73,7.09,.97,2.34,1.99,4.66,3.08,6.95,1.08,2.29,2.22,4.55,3.41,6.78,1.2,2.24,2.45,4.44,3.75,6.61,1.3,2.17,2.65,4.31,4.06,6.42,1.4,2.11,2.87,4.17,4.38,6.21,1.51,2.03,3.07,4.03,4.67,5.99,1.61,1.96,3.26,3.88,4.96,5.75,1.71,1.88,3.45,3.72,5.24,5.5,1.79,1.79,3.62,3.54,5.5,5.24,1.88,1.7,3.8,3.36,5.76,4.96,1.96,1.61,3.96,3.17,5.99,4.68,2.04,1.51,4.11,2.97,6.21,4.38,2.11,1.41,4.25,2.76,6.42,4.07,2.18,1.3,4.38,2.55,6.62,3.74,2.23,1.2,4.5,2.34,6.79,3.42,2.29,1.08,4.6,2.11,6.95,3.08,2.34,.97,4.7,1.88,7.09,2.73,2.38,.85,4.79,1.65,7.22,2.38,2.42,.74,4.86,1.41,7.32,2.03,2.46,.61,4.93,1.17,7.41,1.66,2.49,.5,4.99,.93,7.49,1.3,2.51,.37,5.02,.68,7.54,.93,2.52,.25,5.05,.43,7.58,.56,2.53,.13,5.06,.19,7.59,.19s5.07-.06,7.6-.19c2.53-.13,5.05-.31,7.58-.56,2.52-.25,5.04-.56,7.54-.93,2.5-.38,5-.81,7.48-1.3,2.49-.5,4.96-1.05,7.42-1.66,2.45-.62,4.9-1.29,7.32-2.03,2.43-.73,4.83-1.53,7.22-2.38,2.38-.85,4.75-1.77,7.09-2.73,2.35-.97,4.66-2,6.95-3.08,2.29-1.08,4.55-2.22,6.79-3.42,2.24-1.19,4.44-2.44,6.61-3.74,2.18-1.3,4.31-2.66,6.42-4.07,2.11-1.4,4.18-2.86,6.22-4.38,2.03-1.51,4.03-3.06,5.99-4.68,1.96-1.6,3.88-3.26,5.75-4.96,1.88-1.7,3.71-3.45,5.51-5.24,1.79-1.79,3.54-3.62,5.24-5.5Z"/><path d="M499.6,464.05c-.24-1.47-.58-2.9-1.02-4.32-.45-1.41-.98-2.78-1.63-4.12-.64-1.34-1.37-2.62-2.2-3.85-.83-1.24-1.74-2.4-2.73-3.5l-98.1-106.69c1.03-1.46,2.04-2.93,3.03-4.41,1.97-2.95,3.87-5.95,5.69-8.99,1.82-3.05,3.57-6.13,5.24-9.26,1.67-3.13,3.27-6.3,4.78-9.5,1.52-3.21,2.95-6.45,4.31-9.73,1.35-3.28,2.63-6.59,3.83-9.92,1.2-3.34,2.31-6.71,3.34-10.1,1.03-3.4,1.98-6.81,2.84-10.25,.86-3.44,1.64-6.9,2.33-10.38,.69-3.48,1.3-6.97,1.81-10.48,.52-3.51,.96-7.03,1.3-10.56,.35-3.53,.61-7.06,.78-10.61,.18-3.54,.26-7.09,.26-10.64s-.09-7.09-.26-10.64c-.18-3.54-.43-7.08-.78-10.61-.34-3.54-.78-7.05-1.3-10.56-.51-3.51-1.12-7-1.81-10.48-.7-3.48-1.47-6.94-2.33-10.38-.87-3.44-1.81-6.86-2.84-10.25-1.03-3.39-2.14-6.76-3.34-10.1-1.19-3.33-2.47-6.64-3.83-9.92-1.36-3.28-2.8-6.52-4.31-9.73-1.51-3.2-3.11-6.37-4.78-9.5-1.67-3.13-3.42-6.21-5.24-9.26-1.83-3.04-3.73-6.04-5.69-8.98-1.97-2.95-4.01-5.85-6.13-8.7-2.11-2.85-4.29-5.65-6.54-8.39-2.25-2.75-4.57-5.43-6.95-8.05-2.38-2.63-4.83-5.2-7.34-7.71-2.51-2.51-5.07-4.95-7.7-7.33-2.63-2.38-5.32-4.69-8.06-6.94-2.74-2.25-5.54-4.44-8.38-6.55-2.85-2.11-5.75-4.16-8.7-6.12-2.95-1.97-5.95-3.87-8.99-5.69-3.04-1.82-6.13-3.57-9.26-5.25-3.13-1.67-6.3-3.27-9.5-4.78-3.21-1.52-6.45-2.95-9.73-4.31-3.28-1.36-6.59-2.64-9.93-3.83-3.34-1.2-6.7-2.31-10.1-3.34-3.4-1.03-6.81-1.97-10.25-2.83-3.44-.86-6.9-1.64-10.38-2.33-3.48-.7-6.97-1.3-10.49-1.82-3.51-.52-7.02-.96-10.55-1.3-3.53-.35-7.07-.61-10.61-.78-3.54-.18-7.09-.26-10.64-.26s-7.09,.09-10.63,.26c-3.54,.18-7.08,.43-10.61,.78-3.53,.34-7.05,.78-10.56,1.3-3.51,.52-7,1.12-10.48,1.82-3.48,.69-6.94,1.47-10.38,2.33-3.44,.86-6.86,1.81-10.25,2.83-3.39,1.03-6.76,2.14-10.1,3.34-3.34,1.19-6.65,2.47-9.92,3.83-3.28,1.35-6.52,2.79-9.73,4.31-3.2,1.52-6.37,3.12-9.5,4.78-3.13,1.67-6.21,3.42-9.26,5.25-3.04,1.82-6.04,3.72-8.99,5.69-2.95,1.97-5.85,4.01-8.7,6.12-2.85,2.11-5.64,4.3-8.38,6.55-2.75,2.25-5.43,4.56-8.06,6.94-2.63,2.38-5.19,4.83-7.7,7.33-2.51,2.51-4.95,5.08-7.34,7.71-2.38,2.63-4.7,5.31-6.95,8.05-2.25,2.74-4.43,5.53-6.55,8.39-2.11,2.85-4.15,5.75-6.12,8.7-1.98,2.95-3.87,5.94-5.69,8.98-1.83,3.05-3.57,6.13-5.24,9.26-1.67,3.13-3.27,6.3-4.79,9.5-1.51,3.21-2.95,6.45-4.31,9.73-1.35,3.28-2.63,6.59-3.83,9.92-1.2,3.34-2.31,6.71-3.34,10.1-1.03,3.4-1.98,6.81-2.83,10.25-.86,3.44-1.64,6.9-2.33,10.38-.69,3.48-1.3,6.97-1.82,10.48s-.95,7.03-1.3,10.56c-.35,3.53-.61,7.06-.78,10.61-.18,3.55-.26,7.09-.26,10.64s.09,7.1,.26,10.64c.18,3.54,.43,7.08,.78,10.61,.34,3.54,.78,7.05,1.3,10.56,.52,3.51,1.13,7,1.82,10.48,.7,3.48,1.47,6.94,2.33,10.38s1.81,6.86,2.83,10.25c1.03,3.4,2.14,6.76,3.34,10.1,1.19,3.33,2.47,6.64,3.83,9.92,1.35,3.28,2.8,6.52,4.31,9.73,1.52,3.2,3.11,6.37,4.79,9.5,1.67,3.13,3.42,6.21,5.24,9.26,1.82,3.04,3.72,6.04,5.69,8.99,1.97,2.95,4.01,5.85,6.12,8.69,2.11,2.85,4.3,5.65,6.55,8.39,2.25,2.75,4.57,5.43,6.95,8.05,2.38,2.63,4.83,5.2,7.34,7.71,2.51,2.51,5.07,4.95,7.7,7.33,2.63,2.38,5.31,4.7,8.06,6.95,2.74,2.25,5.54,4.43,8.38,6.54,2.85,2.11,5.75,4.16,8.7,6.12,2.95,1.97,5.95,3.87,8.99,5.69,3.04,1.82,6.13,3.57,9.26,5.25,3.13,1.67,6.3,3.27,9.5,4.78,3.2,1.52,6.45,2.95,9.73,4.31,3.27,1.35,6.59,2.63,9.92,3.82,3.34,1.2,6.71,2.31,10.1,3.34,3.39,1.03,6.81,1.97,10.25,2.83,3.44,.86,6.9,1.64,10.38,2.33,3.48,.7,6.97,1.3,10.48,1.82,3.51,.52,7.03,.95,10.56,1.3,3.53,.35,7.07,.61,10.61,.78s7.09,.26,10.63,.26,7.09-.09,10.64-.26c3.54-.18,7.08-.43,10.61-.78,3.53-.34,7.05-.78,10.55-1.3,3.51-.53,7.01-1.13,10.49-1.82,3.47-.69,6.94-1.47,10.38-2.33,3.44-.86,6.85-1.81,10.25-2.83,3.39-1.03,6.76-2.14,10.1-3.34,3.34-1.19,6.65-2.47,9.93-3.82,3.28-1.36,6.52-2.8,9.73-4.31,3.2-1.52,6.37-3.12,9.5-4.78,3.13-1.67,6.22-3.42,9.26-5.25,3.04-1.82,6.04-3.72,8.99-5.69,2.95-1.97,5.85-4.01,8.7-6.12,1.87-1.39,3.7-2.81,5.53-4.26l95.43,103.51c1.45,1.56,3.04,2.95,4.76,4.18,1.73,1.23,3.57,2.27,5.51,3.12,1.94,.85,3.96,1.5,6.03,1.94s4.18,.66,6.3,.67c1.48-.02,2.95-.14,4.42-.38,1.46-.23,2.9-.56,4.32-1,1.41-.44,2.79-.97,4.13-1.61,1.34-.63,2.62-1.36,3.86-2.18,1.24-.82,2.41-1.72,3.51-2.71,1.1-.98,2.13-2.04,3.09-3.18s1.82-2.33,2.6-3.59c.78-1.26,1.47-2.57,2.06-3.93,.59-1.36,1.08-2.75,1.48-4.18,.39-1.43,.68-2.88,.87-4.35,.19-1.47,.26-2.95,.24-4.43s-.16-2.95-.4-4.42Zm-184.64-127.64c-1.96,1.61-3.96,3.17-5.99,4.68-2.04,1.51-4.11,2.97-6.22,4.38-2.11,1.41-4.25,2.76-6.42,4.07-2.17,1.3-4.37,2.55-6.61,3.74-2.23,1.2-4.5,2.34-6.79,3.42-2.29,1.08-4.6,2.11-6.95,3.08-2.34,.97-4.7,1.88-7.09,2.73-2.39,.85-4.79,1.65-7.22,2.38-2.42,.74-4.87,1.41-7.32,2.03-2.46,.61-4.93,1.17-7.42,1.66-2.48,.5-4.98,.93-7.48,1.3-2.51,.37-5.02,.68-7.54,.93-2.52,.25-5.05,.43-7.58,.56-2.53,.13-5.07,.19-7.6,.19s-5.06-.06-7.59-.19c-2.53-.13-5.05-.31-7.58-.56-2.52-.25-5.04-.56-7.54-.93-2.5-.38-5-.81-7.49-1.3-2.48-.5-4.95-1.05-7.41-1.66-2.46-.62-4.9-1.29-7.32-2.03-2.43-.73-4.84-1.53-7.22-2.38-2.38-.85-4.75-1.77-7.09-2.73-2.35-.97-4.66-2-6.95-3.08-2.29-1.08-4.55-2.22-6.79-3.42-2.24-1.19-4.44-2.44-6.62-3.74-2.17-1.3-4.31-2.66-6.42-4.07-2.11-1.4-4.18-2.86-6.21-4.38-2.03-1.51-4.03-3.06-5.99-4.68-1.96-1.6-3.88-3.26-5.76-4.96-1.88-1.7-3.71-3.45-5.5-5.24-1.79-1.79-3.54-3.62-5.24-5.5-1.7-1.87-3.36-3.79-4.96-5.75-1.61-1.96-3.17-3.96-4.67-5.99-1.51-2.04-2.97-4.11-4.38-6.21-1.41-2.11-2.77-4.25-4.06-6.42-1.3-2.17-2.55-4.38-3.75-6.61-1.19-2.23-2.33-4.49-3.41-6.78-1.08-2.29-2.11-4.61-3.08-6.95-.97-2.34-1.88-4.7-2.73-7.09-.85-2.38-1.65-4.79-2.38-7.21-.74-2.43-1.41-4.86-2.03-7.32-.61-2.46-1.17-4.93-1.66-7.41-.5-2.49-.93-4.98-1.3-7.49-.37-2.51-.68-5.02-.93-7.54-.24-2.52-.43-5.05-.56-7.58-.12-2.53-.18-5.06-.18-7.6s.06-5.06,.18-7.6c.13-2.53,.31-5.06,.56-7.58,.25-2.52,.56-5.03,.93-7.54,.37-2.51,.8-5,1.3-7.49,.5-2.48,1.05-4.95,1.66-7.41,.62-2.46,1.29-4.9,2.03-7.32,.73-2.43,1.53-4.83,2.38-7.21,.85-2.39,1.76-4.75,2.73-7.09,.97-2.34,1.99-4.66,3.08-6.94,1.08-2.29,2.22-4.56,3.41-6.79,1.2-2.24,2.45-4.44,3.75-6.61,1.3-2.17,2.65-4.31,4.06-6.42,1.4-2.11,2.87-4.18,4.38-6.22,1.51-2.03,3.07-4.03,4.67-5.99,1.61-1.96,3.26-3.88,4.96-5.75,1.71-1.88,3.45-3.72,5.24-5.5,1.79-1.79,3.62-3.54,5.5-5.24,1.88-1.7,3.8-3.36,5.76-4.96,1.96-1.61,3.96-3.17,5.99-4.68,2.04-1.51,4.11-2.97,6.21-4.37,2.11-1.41,4.25-2.76,6.42-4.07,2.18-1.3,4.38-2.55,6.62-3.74,2.23-1.2,4.5-2.33,6.79-3.42,2.29-1.08,4.6-2.11,6.95-3.08,2.34-.97,4.7-1.88,7.09-2.73,2.38-.85,4.79-1.65,7.22-2.38,2.42-.74,4.86-1.41,7.32-2.03,2.46-.61,4.93-1.17,7.41-1.66,2.49-.5,4.99-.93,7.49-1.3,2.51-.38,5.02-.68,7.54-.93,2.52-.24,5.05-.43,7.58-.56,2.53-.13,5.06-.19,7.59-.19s5.07,.06,7.6,.19c2.53,.13,5.05,.31,7.58,.56,2.52,.25,5.04,.56,7.54,.93,2.5,.37,5,.8,7.48,1.3,2.49,.5,4.96,1.05,7.42,1.66,2.45,.62,4.9,1.29,7.32,2.03,2.43,.73,4.83,1.53,7.22,2.38,2.38,.85,4.75,1.77,7.09,2.73,2.35,.97,4.66,2,6.95,3.08,2.29,1.08,4.55,2.22,6.79,3.42,2.24,1.19,4.44,2.44,6.61,3.74,2.18,1.3,4.31,2.66,6.42,4.07,2.11,1.4,4.18,2.86,6.22,4.37,2.03,1.51,4.03,3.07,5.99,4.68,1.96,1.6,3.88,3.26,5.75,4.96,1.88,1.7,3.71,3.45,5.51,5.24,1.79,1.79,3.54,3.62,5.24,5.5,1.71,1.87,3.36,3.79,4.97,5.75,1.61,1.96,3.17,3.96,4.67,5.99,1.51,2.04,2.97,4.11,4.38,6.22,1.4,2.11,2.76,4.24,4.06,6.42,1.3,2.17,2.55,4.37,3.74,6.61,1.2,2.23,2.33,4.49,3.42,6.79,1.08,2.29,2.11,4.6,3.08,6.94,.97,2.34,1.88,4.7,2.73,7.09,.85,2.39,1.65,4.79,2.38,7.21,.74,2.43,1.41,4.86,2.03,7.32,.62,2.46,1.17,4.93,1.67,7.41,.5,2.49,.93,4.98,1.3,7.49,.37,2.51,.68,5.02,.93,7.54,.25,2.52,.44,5.05,.56,7.58,.12,2.53,.18,5.06,.18,7.6s-.06,5.06-.18,7.6c-.13,2.53-.31,5.06-.56,7.58-.24,2.52-.56,5.03-.93,7.54-.37,2.51-.8,5-1.3,7.49-.5,2.48-1.05,4.95-1.67,7.41-.61,2.46-1.29,4.9-2.03,7.32-.73,2.43-1.53,4.83-2.38,7.21-.85,2.39-1.76,4.75-2.73,7.09-.97,2.34-1.99,4.66-3.08,6.95-1.08,2.29-2.22,4.55-3.42,6.78-1.19,2.24-2.44,4.44-3.74,6.61-1.3,2.17-2.66,4.31-4.06,6.42-1.41,2.11-2.87,4.17-4.38,6.21-1.51,2.03-3.07,4.03-4.67,5.99-1.61,1.96-3.26,3.88-4.97,5.75-1.7,1.88-3.44,3.72-5.24,5.5-1.79,1.79-3.62,3.54-5.51,5.24-1.88,1.7-3.79,3.36-5.75,4.96Z"/></svg>