<?xml version="1.0" encoding="UTF-8"?><svg id="Layer_1" xmlns="http://www.w3.org/2000/svg" xmlns:xlink="http://www.w3.org/1999/xlink" viewBox="0 0 437.63 500"><defs><style>.cls-1{fill:none;}.cls-2{clip-path:url(#clippath);}.cls-3{fill-rule:evenodd;}</style><clipPath id="clippath"><rect class="cls-1" width="437.63" height="500"/></clipPath></defs><g class="cls-2"><path class="cls-3" d="M176.37,48.55c-11.37,11.85-20.07,31.06-20.07,59.55v32.58h125.04v-32.57c0-51.58-32.79-75.96-62.92-76.73-15.4-.39-30.62,5.26-42.05,17.17Zm136.22,92.13v-32.57C312.59,40.55,267.23,1.39,219.22,.16c-23.68-.6-47.54,8.15-65.41,26.77-17.93,18.68-28.77,46.14-28.77,81.17v32.58H0V421.78c0,43.13,34.99,78.09,78.15,78.09H359.48c43.16,0,78.15-34.96,78.15-78.09V140.68h-125.04Zm-31.26,31.23v15.61h31.26v-15.61h93.78v249.86c0,25.88-21,46.85-46.89,46.85H78.15c-25.9,0-46.89-20.97-46.89-46.85V171.92H125.04v15.61h31.26v-15.61h125.04Z"/></g></svg>